<svg viewBox="0 0 36 36" fill="none" xmlns="http://www.w3.org/2000/svg">
<path d="M29.2537 18.2439C29.3564 18.0386 29.2879 17.7991 29.1168 17.6622C28.8773 17.4911 23.6079 14.001 19.9124 15.746C19.9809 14.001 19.5361 12.3928 19.5361 12.2901C19.4676 12.0848 19.2623 11.948 19.0228 11.9822C18.8175 12.0164 14.3351 13.0087 13.2743 15.7803C13.0348 16.4304 12.9664 17.1147 13.1375 17.8333L9.81841 14.5484C9.64732 14.3774 9.37359 14.3774 9.2025 14.5484C9.03142 14.7195 9.03142 14.9933 9.2025 15.1644L12.5558 18.5176C11.8372 18.3465 11.1529 18.415 10.5028 18.6545C7.73117 19.7494 6.73887 24.2319 6.70466 24.403C6.67044 24.6083 6.77309 24.8478 7.01261 24.9162C7.08105 24.9504 8.72346 25.3953 10.4685 25.2926C8.72346 28.9538 12.2136 34.2575 12.3847 34.497C12.4531 34.6339 12.59 34.7023 12.7269 34.7023C12.7953 34.7023 12.8637 34.6681 12.9322 34.6339C13.069 34.5654 15.8406 32.9914 17.5172 30.6305C18.6806 31.6912 20.2204 32.444 21.3496 32.444C22.1023 32.444 22.8893 32.3071 23.6421 32.2044C24.7028 32.0334 25.9004 31.8623 26.2426 32.2044C26.4137 32.3755 26.6874 32.3755 26.8585 32.2044C26.9269 32.136 26.9954 31.9991 26.9954 31.8965C26.9954 31.7938 26.9612 31.6912 26.8585 31.5885C26.5163 31.2464 26.6874 30.0488 26.8585 28.988C26.9612 28.2353 27.098 27.4483 27.098 26.6955C27.098 25.5663 26.3795 24.0608 25.2845 22.8632C27.6113 21.1523 29.1853 18.3808 29.2537 18.2439Z" fill="#FF5200"/>
<path d="M17.9963 10.9556C18.2358 10.9556 18.4069 10.7503 18.4069 10.545V1.717C18.4069 1.47748 18.2016 1.3064 17.9963 1.3064C17.791 1.3064 17.5857 1.5117 17.5857 1.717V10.5108C17.5857 10.7503 17.7568 10.9556 17.9963 10.9556Z" fill="#FF5200"/>
<path d="M24.1554 14.3773C24.3949 14.3773 24.566 14.172 24.566 13.9667V6.54159C24.566 6.30207 24.3607 6.13098 24.1554 6.13098C23.9501 6.13098 23.7448 6.33628 23.7448 6.54159V13.9325C23.7448 14.172 23.9501 14.3773 24.1554 14.3773Z" fill="#FF5200"/>
<path d="M14.5745 12.3243C14.8141 12.3243 14.9852 12.119 14.9852 11.9137V7.70504C14.9852 7.46552 14.7798 7.29443 14.5745 7.29443C14.3692 7.29443 14.1639 7.49974 14.1639 7.70504V11.8795C14.1639 12.119 14.335 12.3243 14.5745 12.3243Z" fill="#FF5200"/>
</svg>
