
		<svg xmlns="http://www.w3.org/2000/svg" xmlns:xlink="http://www.w3.org/1999/xlink" version="1.1" width="3073.529411764706" height="1117.6470588235293">
			
			<g transform="scale(3.676470588235294) translate(10, 10)">
				<defs id="SvgjsDefs1030"/><g id="main_text" rel="mainfill" name="main_text" feature="main_text" xmlns:name="mainText_mainfill" groupName="main_text" fill="#5b5b5b" transform="translate(207.55025113823186, -29.463985239346826) scale(8.24027625205505)"><path d="M6.72 20 l-2.68 0 l0 -11.6 l-3.5 0 l0 -2.64 l9.68 0 l0 2.64 l-3.5 0 l0 11.6 z M15.91783333333333 20.22 l-0.02 0 c-0.58 0 -1.18 -0.14 -1.74 -0.4 c-0.52 -0.22 -1 -0.58 -1.44 -1.04 c-0.7 -0.76 -1.12 -1.76 -1.22 -2.8 c-0.02 -0.18 -0.04 -0.36 -0.04 -0.56 c0 -0.4 0.06 -0.82 0.16 -1.24 c0.18 -0.8 0.56 -1.54 1.1 -2.1 c0.4 -0.44 0.86 -0.78 1.44 -1.06 c0.54 -0.26 1.14 -0.38 1.76 -0.38 c0.64 0 1.22 0.12 1.76 0.38 c0.6 0.28 1.08 0.64 1.44 1.06 c0.52 0.56 0.92 1.28 1.12 2.1 c0.1 0.38 0.14 0.78 0.14 1.24 l0 0.46 l-6.72 0 l0.02 0.14 c0.26 1.24 1.2 2.14 2.24 2.14 l0.02 0 c0.58 -0.04 1.22 -0.4 1.6 -0.72 l0.22 -0.18 l1.66 1.44 l-0.3 0.26 c-0.22 0.2 -0.5 0.44 -0.8 0.6 l-0.02 0 c-0.72 0.42 -1.5 0.64 -2.38 0.66 z M15.91783333333333 12.719999999999999 c-0.78 0 -1.56 0.54 -1.98 1.38 l-0.08 0.16 l4.14 0 l-0.08 -0.16 c-0.46 -0.86 -1.22 -1.38 -2 -1.38 z M30.91566666666666 20 l-2.52 0 l0 -4.9 c0 -1.08 -0.86 -1.92 -1.94 -1.92 c-1.04 0 -1.94 0.86 -1.94 1.92 l0 4.9 l-2.5 0 l0 -9.16 l2.5 0 l0 0.66 c0.62 -0.62 1.28 -0.84 1.94 -0.84 c1.2 0 2.32 0.46 3.16 1.28 c0.84 0.86 1.3 1.98 1.3 3.16 l0 4.9 z"/></g><g id="SvgjsG1032" rel="mainfill" name="main_text" feature="main_text_2" xmlns:name="mainText_mainfill" groupName="main_text_2" fill="#5b5b5b" transform="translate(206.39661356313974, 113.16173285379988) scale(8.24027625205505)"><path d="M8.12 20.2 c-4.1 0 -7.44 -3.32 -7.44 -7.42 c0 -4.12 3.34 -7.46 7.44 -7.46 c4.12 0 7.46 3.34 7.46 7.46 c0 4.1 -3.34 7.42 -7.46 7.42 z M8.12 7.98 c-2.62 0 -4.76 2.14 -4.76 4.8 c0 2.64 2.14 4.78 4.76 4.78 s4.76 -2.14 4.76 -4.78 c0 -2.66 -2.14 -4.8 -4.76 -4.8 z M21.717833333333335 20.2 c-1.28 0 -2.48 -0.5 -3.38 -1.38 l-0.02 -0.02 c-0.88 -0.9 -1.38 -2.1 -1.38 -3.38 s0.5 -2.5 1.38 -3.4 c0.9 -0.88 2.1 -1.38 3.4 -1.38 c1.32 0 2.52 0.48 3.38 1.38 c0.2 0.2 0.36 0.38 0.5 0.56 l0.24 0.36 l-1.96 1.46 l-0.28 -0.38 c-0.48 -0.64 -1.18 -1.04 -1.88 -1.04 c-1.26 0 -2.34 1.12 -2.34 2.44 s1.08 2.44 2.34 2.44 c0.7 0 1.4 -0.4 1.88 -1.08 l0.26 -0.36 l2.04 1.46 l-0.3 0.38 c-0.04 0.06 -0.1 0.12 -0.16 0.18 c-0.1 0.12 -0.22 0.26 -0.34 0.38 c-0.88 0.88 -2.08 1.38 -3.38 1.38 z M33.89566666666667 20 l-2.4 0 c-0.88 0 -1.7 -0.34 -2.3 -0.94 c-0.62 -0.62 -0.94 -1.42 -0.94 -2.3 l0 -3.8 l-1.28 0 l0 -2.06 l1.28 0 l0 -3.6 l2.38 0 l0 3.6 l2.66 0 l0 2.06 l-2.66 0 l0 3.76 c0 0.5 0.44 0.96 0.88 0.96 l1.74 0 z M39.7735 20.22 c-1.24 0 -2.46 -0.5 -3.4 -1.4 c-0.9 -0.94 -1.4 -2.16 -1.4 -3.4 c0 -1.26 0.5 -2.48 1.4 -3.4 c0.92 -0.88 2.12 -1.38 3.4 -1.38 c1.32 0 2.52 0.5 3.38 1.38 c0.92 0.92 1.42 2.12 1.42 3.4 s-0.5 2.48 -1.42 3.4 c-0.9 0.9 -2.1 1.4 -3.38 1.4 z M39.7735 12.92 c-1.34 0 -2.44 1.12 -2.44 2.5 s1.1 2.5 2.44 2.5 c1.36 0 2.46 -1.12 2.46 -2.5 s-1.1 -2.5 -2.46 -2.5 z M51.43133333333333 20.18 c-0.72 0 -1.54 -0.1 -2.26 -0.8 l-0.1 -0.1 l0 0.72 l-2.42 0 l0 -14.68 l2.42 0 l0 6.32 l0.1 -0.08 c0.66 -0.6 1.42 -0.9 2.26 -0.9 c1.28 0 2.48 0.48 3.38 1.38 c0.9 0.92 1.4 2.12 1.4 3.38 s-0.5 2.46 -1.4 3.38 c-0.92 0.9 -2.12 1.38 -3.38 1.38 z M49.07133333333333 15.42 c0 1.32 1.08 2.42 2.36 2.42 s2.36 -1.1 2.36 -2.42 c0 -1.3 -1.08 -2.42 -2.36 -2.42 s-2.36 1.12 -2.36 2.42 z M61.98916666666666 20.22 l-0.02 0 c-0.58 0 -1.18 -0.14 -1.74 -0.4 c-0.52 -0.22 -1 -0.58 -1.44 -1.04 c-0.7 -0.76 -1.12 -1.76 -1.22 -2.8 c-0.02 -0.18 -0.04 -0.36 -0.04 -0.56 c0 -0.4 0.06 -0.82 0.16 -1.24 c0.18 -0.8 0.56 -1.54 1.1 -2.1 c0.4 -0.44 0.86 -0.78 1.44 -1.06 c0.54 -0.26 1.14 -0.38 1.76 -0.38 c0.64 0 1.22 0.12 1.76 0.38 c0.6 0.28 1.08 0.64 1.44 1.06 c0.52 0.56 0.92 1.28 1.12 2.1 c0.1 0.38 0.14 0.78 0.14 1.24 l0 0.46 l-6.72 0 l0.02 0.14 c0.26 1.24 1.2 2.14 2.24 2.14 l0.02 0 c0.58 -0.04 1.22 -0.4 1.6 -0.72 l0.22 -0.18 l1.66 1.44 l-0.3 0.26 c-0.22 0.2 -0.5 0.44 -0.8 0.6 l-0.02 0 c-0.72 0.42 -1.5 0.64 -2.38 0.66 z M61.98916666666666 12.719999999999999 c-0.78 0 -1.56 0.54 -1.98 1.38 l-0.08 0.16 l4.14 0 l-0.08 -0.16 c-0.46 -0.86 -1.22 -1.38 -2 -1.38 z M70.86699999999999 20 l-2.52 0 l0 -9.16 l2.52 0 l0 0.74 c0.72 -0.72 1.8 -0.96 2.52 -0.96 l0.6 0 l-0.6 2.5 l-0.38 0 c-1.18 0 -2.14 0.92 -2.14 2.02 l0 4.86 z"/></g><g id="SvgjsG1033" rel="mainfill" name="symbol" feature="symbol" xmlns:name="symbol_mainfill" fill="#ff5200" transform="translate(-31.78223621818622, 11.41858507939707) scale(2.7549346553603464)"><g xmlns="http://www.w3.org/2000/svg"><path d="M82.9,50.8c0.3-0.6,0.1-1.3-0.4-1.7c-0.7-0.5-16.1-10.7-26.9-5.6c0.2-5.1-1.1-9.8-1.1-10.1c-0.2-0.6-0.8-1-1.5-0.9   c-0.6,0.1-13.7,3-16.8,11.1c-0.7,1.9-0.9,3.9-0.4,6L26.1,40c-0.5-0.5-1.3-0.5-1.8,0s-0.5,1.3,0,1.8l9.8,9.8c-2.1-0.5-4.1-0.3-6,0.4   C20,55.2,17.1,68.3,17,68.8c-0.1,0.6,0.2,1.3,0.9,1.5c0.2,0.1,5,1.4,10.1,1.1c-5.1,10.7,5.1,26.2,5.6,26.9c0.2,0.4,0.6,0.6,1,0.6   c0.2,0,0.4-0.1,0.6-0.2c0.4-0.2,8.5-4.8,13.4-11.7c3.4,3.1,7.9,5.3,11.2,5.3c2.2,0,4.5-0.4,6.7-0.7c3.1-0.5,6.6-1,7.6,0   c0.5,0.5,1.3,0.5,1.8,0c0.2-0.2,0.4-0.6,0.4-0.9s-0.1-0.6-0.4-0.9c-1-1-0.5-4.5,0-7.6c0.3-2.2,0.7-4.5,0.7-6.7   c0-3.3-2.1-7.7-5.3-11.2C78.1,59.3,82.7,51.2,82.9,50.8z"/><path d="M50,29.5c0.7,0,1.2-0.6,1.2-1.2V2.5c0-0.7-0.6-1.2-1.2-1.2s-1.2,0.6-1.2,1.2v25.7C48.8,28.9,49.3,29.5,50,29.5z"/><path d="M68,39.5c0.7,0,1.2-0.6,1.2-1.2V16.6c0-0.7-0.6-1.2-1.2-1.2s-1.2,0.6-1.2,1.2v21.6C66.8,38.9,67.4,39.5,68,39.5z"/><path d="M40,33.5c0.7,0,1.2-0.6,1.2-1.2V20c0-0.7-0.6-1.2-1.2-1.2s-1.2,0.6-1.2,1.2v12.2C38.8,32.9,39.3,33.5,40,33.5z"/></g></g>
			</g>
		</svg>
	