<svg width="1200" height="675" viewBox="0 0 1200 675" fill="none" xmlns="http://www.w3.org/2000/svg">
<path fill-rule="evenodd" clip-rule="evenodd" d="M736.52 253.199C706.879 253.199 686.624 258.754 682.457 260.003C682.207 260.08 681.98 260.218 681.798 260.406C681.615 260.593 681.483 260.823 681.413 261.075C673.099 289.328 665.986 305.696 662.92 312.165C662.332 313.405 663.423 314.775 664.691 314.43C672.744 312.202 694.192 306.982 718.101 306.982C753.354 306.982 767.597 316.62 767.597 330.006C767.597 332.364 767.243 335.114 766.59 338.134C766.549 338.365 766.455 338.584 766.315 338.773C766.175 338.962 765.993 339.116 765.783 339.223C765.574 339.329 765.342 339.386 765.107 339.388C764.872 339.39 764.639 339.337 764.428 339.234C756.43 335.188 740.099 329.055 714.653 329.055C675.131 329.055 638.666 344.715 638.666 378.83C638.666 399.085 659.005 420.981 711.185 420.981C743.996 420.981 765.369 414.344 768.977 413.132C769.332 413.014 769.63 412.768 769.816 412.443C773.376 406.319 807.893 345.824 807.893 304.177C807.893 270.853 778.736 253.199 736.52 253.199ZM735.756 359.563C720.469 359.563 708.92 366.675 708.92 375.624C708.92 385.504 721.131 391.116 733.472 391.116C737.723 391.116 741.488 390.78 744.658 390.286C744.897 390.247 745.123 390.151 745.317 390.007C745.512 389.863 745.669 389.674 745.776 389.457C749.739 381.713 753.46 373.849 756.934 365.874C757.021 365.678 757.068 365.467 757.073 365.253C757.079 365.038 757.042 364.825 756.965 364.625C756.888 364.425 756.772 364.243 756.624 364.087C756.477 363.932 756.3 363.807 756.104 363.721C749.654 361.031 742.744 359.619 735.756 359.563V359.563Z" fill="#8676F5"/>
<path fill-rule="evenodd" clip-rule="evenodd" d="M1071.91 253.199C1042.27 253.199 1022.01 258.754 1017.84 260.003C1017.59 260.081 1017.37 260.219 1017.19 260.407C1017 260.594 1016.87 260.824 1016.8 261.075C1008.48 289.328 1001.37 305.696 998.307 312.165C997.719 313.405 998.81 314.775 1000.08 314.43C1008.13 312.202 1029.58 306.982 1053.49 306.982C1088.74 306.982 1102.99 316.62 1102.99 330.006C1102.99 332.364 1102.62 335.114 1101.98 338.134C1101.94 338.364 1101.84 338.582 1101.7 338.77C1101.56 338.958 1101.38 339.111 1101.17 339.217C1100.96 339.324 1100.73 339.381 1100.5 339.384C1100.27 339.386 1100.04 339.335 1099.82 339.234C1091.83 335.188 1075.5 329.055 1050.05 329.055C1010.53 329.055 974.062 344.715 974.062 378.83C974.062 399.085 994.401 420.981 1046.58 420.981C1079.39 420.981 1100.77 414.344 1104.37 413.132C1104.73 413.014 1105.03 412.768 1105.21 412.443C1108.77 406.319 1143.29 345.824 1143.29 304.177C1143.29 270.853 1114.12 253.199 1071.91 253.199ZM1071.14 359.563C1055.86 359.563 1044.3 366.675 1044.3 375.624C1044.3 385.504 1056.53 391.116 1068.86 391.116C1072.6 391.126 1076.34 390.849 1080.04 390.286C1080.28 390.247 1080.51 390.151 1080.7 390.007C1080.9 389.863 1081.06 389.674 1081.16 389.457C1085.13 381.713 1088.85 373.849 1092.32 365.874C1092.41 365.678 1092.46 365.467 1092.46 365.253C1092.47 365.038 1092.43 364.825 1092.35 364.625C1092.27 364.425 1092.16 364.243 1092.01 364.087C1091.86 363.932 1091.69 363.807 1091.49 363.721C1085.04 361.032 1078.13 359.62 1071.14 359.563V359.563Z" fill="#8676F5"/>
<path d="M931.278 262.222C926.477 272.643 906.437 317.618 888.307 380.191C888.009 381.226 888.736 382.27 889.761 382.279C905.57 382.428 929.796 382.093 952.605 379.502C953.761 379.362 954.637 380.583 954.189 381.711C950.309 391.348 946.559 401.036 942.939 410.774C942.835 411.071 942.643 411.329 942.388 411.512C942.132 411.696 941.827 411.796 941.513 411.8H818.137C817.056 411.8 816.31 410.653 816.72 409.59C821.539 397.072 845.607 334.2 855.618 300.224C855.925 299.171 855.161 298.118 854.126 298.146C847.135 298.275 840.171 299.045 833.321 300.448C832.109 300.709 831.112 299.442 831.606 298.248C836.549 286.193 840.608 273.794 843.752 261.15C843.827 260.808 844.015 260.502 844.286 260.281C844.556 260.059 844.893 259.935 845.243 259.929H929.88C931.017 259.929 931.763 261.159 931.278 262.222V262.222Z" fill="#8676F5"/>
<path d="M612.259 261.206C612.344 260.879 612.535 260.589 612.801 260.38C613.067 260.171 613.394 260.055 613.732 260.05H651.11C652.256 260.05 652.993 261.336 652.461 262.408C638.293 290.903 629.68 316.853 621.44 341.639L618.346 350.951C613.527 365.277 609.295 377.525 603.637 387.471C592.544 406.971 575.981 417.579 538.91 417.579C499.761 417.579 460.519 403.354 453.602 400.176C453.227 399.992 452.936 399.671 452.79 399.279C452.644 398.887 452.655 398.454 452.819 398.069C454.404 394.35 458.552 383.929 461.013 371.783C461.208 370.777 462.234 370.227 463.129 370.646C470.418 374.049 499.761 387.471 533.522 387.471C557.413 387.471 569.195 379.94 575.487 366.797C576.093 365.52 575.235 364.047 573.902 364.336C563.104 366.639 552.095 367.813 541.054 367.841C492.379 367.841 471.275 351.743 471.275 330.929C471.275 320.349 475.638 307.439 479.105 298.864C479.543 297.792 478.751 296.598 477.632 296.636C468.896 296.89 460.198 297.9 451.636 299.656C450.377 299.935 449.37 298.537 449.958 297.353C452.866 291.5 458.832 277.9 461.162 261.439C461.204 261.065 461.381 260.72 461.658 260.466C461.936 260.213 462.296 260.068 462.672 260.059H556.154C557.366 260.059 558.093 261.448 557.45 262.52C552.053 271.422 536.421 302.443 536.421 320.973C536.421 331.749 543.394 337.621 559.762 337.621C573.054 337.621 582.841 335.337 589.813 332.457C590.016 332.371 590.199 332.242 590.348 332.08C590.497 331.917 590.611 331.725 590.68 331.516C591.78 328.328 592.908 324.972 594.073 321.449C602.071 297.353 610.525 267.404 612.25 261.206H612.259Z" fill="#8676F5"/>
<path d="M321.778 306.197C321.778 306.197 311.597 337.825 313.552 342.005C315.507 346.185 323.512 354.704 323.512 354.704C323.512 354.704 420.333 274.128 321.778 306.197Z" fill="#57275C"/>
<path d="M330.705 330.994C344.61 318.186 351.617 302.244 349.001 293.354C346.716 285.676 338.676 289.911 334.946 289.112C330.127 288.155 329.377 281.951 335.978 280.257C339.922 279.038 350.805 279.003 355.01 287.783C361.109 300.461 349.256 321.574 329.157 334.024C329.087 334.066 329.009 334.094 328.929 334.105C328.848 334.117 328.766 334.112 328.687 334.092C328.608 334.071 328.534 334.035 328.47 333.986C328.405 333.936 328.351 333.875 328.31 333.804C327.87 333.212 328.386 333.115 330.705 331.001V330.994Z" fill="#8F6CFF"/>
<path d="M327.05 308.483C329.081 338.707 315.135 352.555 319.231 366.789C322.108 376.788 327.567 381.037 323.843 396.2C320.491 409.821 302.746 419.978 283.149 442.228C244.754 447.737 199.648 420.488 186.438 396.207C162.058 351.371 159.366 285.125 159.366 285.125" fill="#A9F5FA"/>
<path d="M234.181 304.021L233.293 301.955C225.549 298.512 220.421 306.569 194.747 334.727C177.635 353.547 192.647 399.423 213.813 426.768C270.835 451.125 289.055 448.508 287.465 437.469C243.735 448.212 224.641 402.763 223.526 399.01C221.832 393.501 217.145 380.851 216.188 372.842C214.935 362.396 242.152 339.96 238.215 303.608C238.07 302.313 245.298 314.867 253.076 323.757C271.296 344.643 298.918 333.687 325.956 329.266C332.929 305.501 322.377 295.055 322.377 295.055L239.784 300.364C239.378 300.475 234.03 303.649 234.181 304.021Z" fill="#98DCE1"/>
<path opacity="0.19" d="M293.474 340.628C295.614 347.088 289.674 359.042 288.27 363.986C285.248 374.095 291.553 371.699 291.553 371.699C291.674 371.67 291.801 371.684 291.913 371.738C292.025 371.792 292.115 371.884 292.166 371.997C292.218 372.109 292.23 372.237 292.198 372.357C292.167 372.478 292.094 372.583 291.994 372.656C289.598 374.426 286.866 374.095 285.351 371.809C280.334 364.234 292.324 348.451 292.063 340.477C292.055 340.39 292.066 340.302 292.094 340.219C292.122 340.136 292.166 340.06 292.225 339.995C292.284 339.931 292.356 339.879 292.435 339.843C292.515 339.807 292.602 339.789 292.689 339.788C293.205 339.788 293.315 340.229 293.467 340.601L293.474 340.628Z" fill="#2F2749"/>
<path d="M282.502 383.619C282.565 383.617 282.628 383.605 282.688 383.585C288.442 382.366 290.913 381.884 294.121 378.764C294.966 377.742 295.696 376.628 296.296 375.445C296.373 375.289 296.495 375.159 296.646 375.072C296.798 374.985 296.971 374.945 297.145 374.957C297.319 374.969 297.485 375.032 297.623 375.138C297.761 375.245 297.865 375.39 297.92 375.555C299.393 380.059 295.931 386.181 287.189 386.738C285.523 386.829 283.853 386.642 282.247 386.188C280.588 386.043 280.809 383.495 282.509 383.605L282.502 383.619Z" fill="#57275C"/>
<path d="M256.903 413.781L251.038 416.659C251.038 416.659 259.484 429.908 270.552 427.767C281.621 425.625 275.495 415.22 275.495 415.22L256.91 413.781H256.903Z" fill="#FF63D7"/>
<path d="M245.8 410.227C245.8 410.227 259.518 412.445 287.327 397.681C283.562 405.985 277.587 407.321 277.587 419.269C270.016 414.579 267.847 415.764 265.886 417.568C260.799 415.13 252.573 417.306 252.573 417.306L245.786 410.22L245.8 410.227ZM245.36 404.615C243.701 405.393 240.452 407.79 239.275 411.329C239.242 411.423 239.181 411.505 239.101 411.565C239.021 411.624 238.925 411.657 238.825 411.661C238.726 411.665 238.627 411.639 238.543 411.585C238.459 411.532 238.392 411.455 238.352 411.364C236.693 407.528 239.791 404.023 243.074 403.727C244.692 403.548 246.241 404.216 245.36 404.622V404.615ZM256.091 414.876C261.06 413.946 264.853 415.771 268.006 419.785C268.116 419.928 268.166 420.108 268.146 420.286C268.125 420.465 268.035 420.629 267.895 420.743C267.049 421.431 266.643 419.785 264.247 418.456C260.338 416.466 257.089 416.873 253.991 419.235C252.346 420.536 250.26 418.023 252.002 416.652C253.235 415.794 254.628 415.192 256.097 414.882V414.882L256.091 414.876ZM276.376 423.421C273.313 416.26 267.118 418.257 266.863 418.326C266.698 418.381 266.525 418.404 266.351 418.392C266.178 418.381 266.009 418.335 265.853 418.258C265.697 418.181 265.559 418.074 265.444 417.943C265.33 417.812 265.242 417.66 265.187 417.496C265.131 417.331 265.109 417.157 265.12 416.984C265.132 416.811 265.177 416.641 265.254 416.486C265.331 416.33 265.438 416.191 265.569 416.076C265.7 415.962 265.852 415.875 266.016 415.819C266.092 415.785 274.758 412.906 278.812 422.354C279.501 423.869 277.112 425.108 276.376 423.421V423.421ZM240.342 406.633C249.29 410.227 258.927 429.722 273.134 425.047H273.099C275.088 424.31 276.307 423.421 277.195 421.355L277.305 422.87C272.617 413.567 279.962 400.952 289.364 397.557C289.526 397.506 289.701 397.516 289.855 397.586C290.01 397.657 290.133 397.781 290.201 397.936C290.269 398.092 290.278 398.267 290.225 398.428C290.172 398.589 290.062 398.725 289.915 398.81C282.474 402.942 276.355 413.636 280.967 421.838C279.824 425.157 278.386 427.264 274.441 428.779C257.061 434.577 246.908 412.941 239.337 408.705C239.074 408.558 238.88 408.312 238.797 408.022C238.715 407.731 238.75 407.42 238.896 407.156C239.032 406.91 239.253 406.721 239.518 406.626C239.783 406.531 240.073 406.536 240.335 406.64V406.64L240.342 406.633Z" fill="#57275C"/>
<path d="M250.667 408.898C264.206 416.019 286.811 406.281 287.478 405.799C288.146 405.317 290.431 395.022 290.431 395.022C290.431 395.022 265.314 412.775 250.673 408.898H250.667Z" fill="white"/>
<path d="M242.186 405.875C263.008 414.208 275.708 394.857 294.892 393.218C295.278 393.183 295.667 393.224 296.036 393.341C296.406 393.457 296.749 393.647 297.044 393.897C297.34 394.148 297.582 394.455 297.757 394.801C297.933 395.147 298.037 395.524 298.065 395.911C298.098 396.307 298.051 396.705 297.927 397.083C297.803 397.46 297.604 397.809 297.343 398.108C297.082 398.408 296.763 398.651 296.406 398.825C296.049 398.999 295.66 399.099 295.263 399.12C278.055 399.939 261.831 419.152 240.823 408.823C240.432 408.64 240.129 408.309 239.981 407.903C239.833 407.497 239.853 407.049 240.035 406.657C240.218 406.265 240.549 405.962 240.954 405.814C241.36 405.666 241.809 405.686 242.2 405.868V405.868L242.186 405.875ZM279.108 403.513C280.141 402.336 275.791 400.304 277.188 399.492C286.184 394.286 295.553 391.449 302.746 392.605C302.601 394.637 301.011 398.328 297.101 398.844C293.598 399.32 291.058 398.899 279.108 403.513ZM278.11 404.202C279.067 403.093 279.487 403.169 277.78 401.544C277.188 400.993 275.935 399.843 277.043 399.216C284.532 394.899 294.527 390.953 303.083 392.33C302.821 395.649 300.577 398.638 297.184 399.12C292.207 399.808 290.769 399.34 278.117 404.216L278.11 404.202ZM277.332 399.74C276.596 400.146 279.432 401.771 279.549 403.024C291.058 398.631 293.563 399.003 297.067 398.562C300.57 398.121 302.154 394.947 302.415 392.881C294.341 391.703 284.457 395.656 277.332 399.746V399.74ZM182.212 398.493C163.696 364.393 155.691 313.503 154.548 285.345L164.185 284.939C164.219 285.628 167.138 350.593 190.706 393.921C202.69 415.957 244.63 441.863 280.809 437.69C299.579 416.804 316.436 406.509 319.238 395.064C322.556 381.629 317.765 378.826 314.667 368.159C309.911 351.701 324.304 338.597 322.301 308.855L331.89 308.166C333.954 338.796 320.456 353.519 323.884 365.439C326.576 374.777 332.702 380.534 328.572 397.323C324.772 412.782 307.234 422.161 285.641 446.704C241.753 452.977 195.827 423.525 182.219 398.5L182.212 398.493Z" fill="#57275C"/>
<path d="M189.219 434.254C167.106 425.546 148.126 410.378 134.751 390.726C121.376 371.074 114.226 347.848 114.233 324.074C114.24 258.771 167.165 205.782 232.488 205.782C255.652 205.788 278.305 212.596 297.638 225.363C316.971 238.129 332.133 256.292 341.244 277.598C333.459 278.287 261.205 281.62 201.458 328.013C201.458 328.013 178.055 360.454 217.689 421.121C206.964 425.839 189.219 434.254 189.219 434.254Z" fill="white"/>
<path d="M201.43 328.006C261.184 281.62 333.438 278.294 341.216 277.591C323.437 243.456 305.292 218.659 269.444 218.693C258.156 218.693 203.495 218.177 174.358 256.155C149.978 287.893 147.768 324.136 153.261 351.371C152.263 352.514 144.113 352.92 142.826 353.994L116.456 337.467L114.281 347.797L134.421 365.012C133.795 366.341 134.828 365.701 134.938 367.45C136.005 384.128 149.578 396.455 160.901 396.455C161.754 396.446 162.595 396.656 163.344 397.063C164.093 397.47 164.726 398.062 165.183 398.782C173.309 411.955 183.276 423.897 194.781 434.247C194.781 434.247 206.992 425.866 217.689 421.108C178 360.474 201.423 328.033 201.423 328.033L201.43 328.006Z" fill="#E5E5E5"/>
<path d="M198.629 323.688C175.611 242.499 135.488 256.409 135.488 256.409L156.992 234.635C156.992 234.635 203.867 234.635 223.712 307.078L198.629 323.688Z" fill="#FF63D7"/>
<path d="M241.002 296.487C241.002 296.487 241.409 338.266 196.082 356.68L198.257 318.413L241.002 296.494V296.487Z" fill="#7B4EFF"/>
<path d="M297.604 261.43C270.842 202.607 223.67 205.782 223.67 205.782C236.212 202.015 301.307 210.361 327.608 253.834L297.604 261.43Z" fill="#FF63D7"/>
<path d="M179.115 435.066C103.543 398.631 84.7722 297.816 145.923 237.004C207.921 175.338 311.529 195.893 345.642 275.718L336.79 279.499C304.439 203.881 204.493 186.094 148.284 248.511C163.111 252.608 177.421 262.531 187.898 278.624C196.048 291.137 200.584 305.198 203.392 319.77C194.072 369.475 207.068 403.541 223.016 419.482L229.101 424.833C219.327 428.373 225.522 426.128 198.415 436.016C195.3 437.141 191.991 437.636 188.683 437.472C185.374 437.308 182.131 436.487 179.142 435.059V435.059L179.115 435.066ZM141.456 256.774C98.6352 314.233 119.588 395.684 183.279 426.389C185.108 427.269 187.095 427.775 189.122 427.876C191.149 427.978 193.176 427.674 195.084 426.982L211.459 421.004C189.921 393.735 187.23 354.428 193.563 319.777C189.329 298.223 179.899 277.433 161.817 265.231C155.685 261.038 148.753 258.159 141.456 256.774V256.774ZM136.535 353.953L77.9095 310.033L80.6629 303.353L142.674 342.164" fill="#57275C"/>
<path d="M158.059 383.839C169.323 383.839 178.454 372.737 178.454 359.042C178.454 345.347 169.323 334.245 158.059 334.245C146.795 334.245 137.663 345.347 137.663 359.042C137.663 372.737 146.795 383.839 158.059 383.839Z" fill="#A9F5FA"/>
<path d="M164.212 383.288C154.183 368.228 154.92 345.462 158.093 332.434C186.934 347.9 180.443 371.52 164.212 383.288Z" fill="#98DCE1"/>
<path d="M134.084 363.58C132.636 356.418 133.703 348.974 137.106 342.508C148.463 321.691 177.311 328.598 182.212 354.463C183.66 361.625 182.593 369.068 179.19 375.535C167.606 396.758 138.875 388.935 134.084 363.58ZM154.294 338.672C145.476 340.332 140.059 350.923 142.158 362.031C145.517 379.852 164.144 385.905 171.963 371.589C179.996 356.949 168.597 335.966 154.294 338.672Z" fill="#57275C"/>
<path d="M159.565 368.935C163.551 368.18 165.984 363.346 164.999 358.137C164.014 352.928 159.985 349.316 155.999 350.07C152.013 350.824 149.581 355.659 150.566 360.868C151.55 366.077 155.58 369.689 159.565 368.935Z" fill="#FF63D7"/>
<path d="M151.678 369.564C143.969 362.678 146.171 348.458 155.367 346.722C164.563 344.987 171.818 357.389 167.131 366.651C164.033 372.808 156.84 374.171 151.678 369.564ZM156.62 353.292C153.178 353.981 152.456 361.225 156.18 364.551C159.621 367.615 162.595 363.373 161.686 358.684C161.005 355.055 158.458 352.955 156.62 353.285V353.292Z" fill="#57275C"/>
<path d="M70.4205 313.944C76.1228 313.944 80.7455 308.311 80.7455 301.363C80.7455 294.414 76.1228 288.782 70.4205 288.782C64.7182 288.782 60.0956 294.414 60.0956 301.363C60.0956 308.311 64.7182 313.944 70.4205 313.944Z" fill="#FF63D7"/>
<path d="M70.4549 318.062C62.491 318.062 56 310.549 56 301.363C56 292.177 62.491 284.684 70.4549 284.684C78.4189 284.684 84.9099 292.177 84.9099 301.363C84.9099 310.549 78.3914 318.062 70.4549 318.062ZM70.4549 292.927C67.0959 292.927 64.2187 296.804 64.2187 301.377C64.2187 305.949 67.0133 309.799 70.4549 309.799C73.8966 309.799 76.6499 305.935 76.6499 301.363C76.6499 296.79 73.814 292.913 70.4549 292.913V292.927ZM77.7443 308.958L81.8743 301.852L144.76 338.638L140.63 345.745L77.7443 308.958ZM76.7669 311.024L81.9294 304.62L139.15 350.792L133.988 357.197L76.7669 311.024ZM201.1 323.468L195.862 315.996C234.408 290.269 291.829 267.18 348.224 259.24L349.476 268.281C304.59 274.589 266.677 289.243 242.737 300.426C216.773 312.553 201.238 323.358 201.1 323.468ZM220.573 307.891C216.291 283.789 205.43 261.905 184.387 248.587C170.001 239.469 156.765 238.326 156.613 238.326L157.301 228.734C170.304 229.498 218.749 242.148 229.996 306.197L220.552 307.898L220.573 307.891ZM284.746 226.186C300.199 241.942 307.137 258.737 312.816 279.657C313.139 280.896 312.957 282.212 312.31 283.316C311.664 284.42 310.605 285.222 309.367 285.545C308.13 285.868 306.814 285.687 305.711 285.04C304.607 284.393 303.805 283.333 303.482 282.095C296.337 253.51 285.992 232.425 260.806 217.957C252.284 212.937 236.576 208.316 224.035 209.005C219.499 209.321 219.127 202.917 223.347 202.47C241.002 200.569 267.001 208.467 284.746 226.186Z" fill="#57275C"/>
<path d="M323.994 352.548C323.994 352.548 356.855 332.84 365.521 305.901C370.057 291.763 320.374 309.702 297.439 315.053C254.356 325.051 243.37 295.124 243.37 295.124C243.37 295.124 326.83 215.374 369.066 244.785C425.716 284.237 374.525 337.708 327.464 356.053" fill="#7B4EFF"/>
<path d="M248.822 300.66C281.277 314.798 327.863 288.816 353.056 283.686C391.485 276.049 396.799 302.506 368.399 331.772C368.139 332.041 367.785 332.198 367.412 332.213C367.039 332.227 366.674 332.097 366.395 331.85C366.115 331.603 365.941 331.257 365.909 330.885C365.877 330.513 365.99 330.142 366.223 329.851C371.537 323.096 377.581 314.908 380.389 305.976C383.521 295.757 380.389 289.45 369.768 288.155C352.615 286.165 333.975 297.107 305.85 304.393C286.783 309.337 264.874 312.181 247.721 302.809C247.58 302.732 247.455 302.628 247.355 302.503C247.254 302.377 247.18 302.233 247.135 302.079C247.09 301.925 247.076 301.763 247.094 301.604C247.112 301.444 247.161 301.29 247.239 301.149C247.415 300.908 247.664 300.731 247.95 300.644C248.235 300.557 248.541 300.565 248.822 300.667V300.66ZM245.291 295.048C278.158 300.378 310.455 265.885 356.8 264.012C395.03 262.676 412.011 283.741 383.645 316.347C383.399 316.628 383.055 316.803 382.683 316.836C382.312 316.868 381.942 316.756 381.651 316.522C381.361 316.288 381.171 315.951 381.124 315.581C381.076 315.211 381.173 314.836 381.394 314.536C419.094 263.922 356.477 262.648 317.978 278.81C283.569 293.54 263.876 302.223 244.768 297.403C243.295 297.073 243.77 294.821 245.284 295.041L245.291 295.048ZM242.634 294.16C282.316 259.804 357.489 229.656 386.839 259.584C387.113 259.853 387.268 260.22 387.272 260.605C387.275 260.989 387.125 261.359 386.856 261.633C386.587 261.907 386.22 262.062 385.836 262.065C385.452 262.069 385.082 261.919 384.808 261.65C352.36 235.09 278.73 272.027 244.1 296.081C243.835 296.264 243.509 296.335 243.193 296.28C242.876 296.224 242.594 296.047 242.407 295.785C242.232 295.536 242.157 295.23 242.198 294.929C242.239 294.628 242.392 294.353 242.627 294.16V294.16H242.634Z" fill="#8D91FD"/>
<path d="M322.335 349.966C326.795 346.936 331.068 343.641 335.131 340.098C359.512 318.874 361.288 303.601 362.348 300.798C362.116 301.39 362.095 302.043 362.29 302.648C362.484 303.253 362.882 303.772 363.415 304.117C363.897 304.413 364.103 304.338 363.601 304.303C352.532 303.711 295.663 324.962 280.54 324.748C263.208 323.936 246.123 309.289 234.422 296.405C269.169 260.314 320.8 229.126 370.078 240.461C386.598 244.958 406.387 283.541 398.299 298.477C378.517 332.64 344.665 355.365 323.76 357.265L323.21 352.169C347.514 349.071 377.794 319.77 391.223 295.303C396.331 285.807 381.683 254.357 367.435 248.986L368.027 249.172C344.864 244.193 322.597 249.282 301.259 259.281C280.306 269.101 258.217 285.855 244.499 299.841L244.575 293.347C245.263 294.036 261.095 311.871 276.885 315.486C281.125 316.485 283.927 316.079 287.767 315.342C320.917 309.055 372.473 287.294 369.279 302.644C369.179 303.146 369.005 303.631 368.763 304.083L369.094 303.236C364.117 324.232 342.352 344.553 325.646 355.158L322.363 349.993L322.335 349.966Z" fill="#57275C"/>
<path d="M223.526 332.365C218.067 341.627 212.684 347.239 203.351 351.591C202.923 351.788 202.437 351.814 201.991 351.664C201.546 351.513 201.174 351.199 200.953 350.784C200.731 350.369 200.676 349.884 200.8 349.43C200.923 348.976 201.215 348.587 201.616 348.341C206.268 345.687 210.224 341.968 213.159 337.488C219.43 328.226 222.638 315.011 222.899 304.937C222.914 304.304 223.053 303.68 223.308 303.1C223.564 302.521 223.931 301.998 224.388 301.561C224.846 301.123 225.385 300.78 225.975 300.551C226.566 300.322 227.195 300.212 227.828 300.227C228.46 300.241 229.084 300.38 229.663 300.636C230.242 300.891 230.765 301.259 231.203 301.716C231.64 302.174 231.983 302.714 232.211 303.304C232.44 303.894 232.55 304.524 232.536 305.157C232.536 306.335 230.691 319.363 223.539 332.358L223.526 332.365Z" fill="#8D91FD"/>
<path d="M197.039 361.404L195.118 351.956C210.386 348.892 221.158 339.113 227.133 322.951C229.946 315.218 231.478 307.077 231.669 298.849L241.305 298.739C241.142 308.142 239.409 317.452 236.177 326.284C229.053 345.538 215.521 357.678 197.039 361.404ZM200.873 323.612L196.055 315.865C196.24 315.755 215.748 303.725 239.02 292.397L243.006 300.66C220.139 311.768 201.017 323.543 200.845 323.653L200.873 323.612Z" fill="#57275C"/>
<path d="M205.45 397.646C226.437 406.543 247.239 445.767 218.618 461.86C180.553 483.208 160.75 438.867 184.835 420.488C208.919 402.109 221.316 434.584 198.147 445.03" fill="#7B4EFF"/>
<path d="M183.981 462.928C183.727 462.707 183.566 462.399 183.529 462.065C183.493 461.731 183.583 461.395 183.783 461.125C183.983 460.854 184.277 460.669 184.608 460.607C184.938 460.544 185.279 460.608 185.564 460.786C202.773 472.004 239.708 444.948 209.387 416.941C208.245 415.874 208.699 416.315 206.696 414.545C206.061 413.998 205.545 413.326 205.18 412.572C204.814 411.817 204.607 410.996 204.57 410.158C204.534 409.321 204.669 408.485 204.968 407.701C205.267 406.918 205.723 406.204 206.308 405.604C206.893 405.004 207.595 404.53 208.37 404.211C209.145 403.892 209.977 403.735 210.815 403.75C211.653 403.765 212.479 403.952 213.242 404.298C214.005 404.645 214.689 405.144 215.252 405.765C254.356 447.943 203.991 479.462 183.981 462.928Z" fill="#8D91FD"/>
<path opacity="0.4" d="M197.411 442.999C191.904 443.997 187.382 441.298 186.679 434.694C186.654 434.308 186.777 433.926 187.022 433.627C187.267 433.327 187.617 433.132 188.001 433.08C188.384 433.029 188.773 433.125 189.089 433.349C189.405 433.573 189.623 433.909 189.701 434.288C191.16 439.391 194.843 439.618 198.884 436.43C201.947 433.771 203.048 430.452 203.605 426.685C203.66 426.143 203.825 425.618 204.088 425.141C204.352 424.665 204.71 424.246 205.14 423.912C205.569 423.577 206.063 423.334 206.589 423.195C207.116 423.057 207.666 423.027 208.204 423.107C208.743 423.187 209.26 423.376 209.724 423.662C210.187 423.948 210.588 424.324 210.902 424.77C211.216 425.215 211.436 425.719 211.55 426.252C211.663 426.785 211.668 427.335 211.563 427.87C210.874 432.559 205.485 441.56 197.411 442.999Z" fill="#8D91FD"/>
<path d="M206.297 395.725C215.465 397.254 226.334 404.402 232.818 416.17C256.166 459.161 198.113 489.757 174.689 462.928C163.586 450.533 165.431 430.783 181.62 418.388C211.384 394.974 221.826 437.318 199.765 448.356C191.098 452.302 183.534 446.366 183.499 439.721C183.465 435.032 187.147 431.458 191.615 430.163C191.95 430.062 192.309 430.084 192.63 430.223C192.951 430.362 193.212 430.611 193.367 430.925C193.522 431.238 193.561 431.596 193.477 431.936C193.393 432.276 193.192 432.574 192.909 432.78C186.025 437.986 189.55 441.932 192.613 442.482C195.862 443.033 199.104 439.935 200.838 437.166C204.893 430.411 204.087 420.447 198.698 419.007C192.978 417.458 178.853 426.582 176.272 439.308C173.691 451.744 183.499 464.443 198.588 463.885C208.988 463.554 229.087 454.933 228.392 435.321C227.952 422.554 218.584 408.382 204.163 405.132C202.923 404.841 201.846 404.075 201.164 402.998C200.482 401.922 200.249 400.621 200.515 399.375C200.824 398.137 201.599 397.067 202.677 396.386C203.755 395.705 205.054 395.466 206.304 395.718L206.297 395.725ZM202.938 420.378C202.389 420.061 201.908 419.637 201.525 419.132C201.141 418.627 200.862 418.05 200.704 417.436C200.545 416.822 200.511 416.182 200.603 415.555C200.694 414.927 200.91 414.324 201.238 413.781C203.117 410.572 202.015 404.257 198.216 396.4C197.874 395.827 197.654 395.189 197.571 394.526C197.488 393.864 197.544 393.192 197.734 392.552C197.925 391.912 198.246 391.319 198.678 390.81C199.109 390.301 199.642 389.887 200.242 389.594C200.842 389.302 201.496 389.137 202.162 389.111C202.829 389.085 203.494 389.197 204.115 389.442C204.736 389.686 205.3 390.056 205.77 390.53C206.24 391.003 206.607 391.569 206.847 392.192C212.313 403.451 213.194 412.403 209.498 418.684C208.847 419.771 207.795 420.558 206.568 420.875C205.342 421.193 204.04 421.014 202.945 420.378H202.938Z" fill="#57275C"/>
<path d="M314.296 343.445C297.088 343.169 293.205 357.107 296.826 366.858C297.411 368.434 298.548 369.744 300.025 370.545C301.502 371.347 303.219 371.585 304.859 371.217C314.812 369.02 318.095 356.101 314.296 343.445Z" fill="white"/>
<path d="M313.642 340.167C314.02 339.12 314.578 336.545 313.69 336.035C312.196 335.216 312.802 338.163 309.188 340.855C302.842 342.728 296.695 349.229 295.814 357.052C295.323 360.349 295.671 363.717 296.826 366.844C297.411 368.42 298.548 369.73 300.025 370.531C301.502 371.333 303.219 371.572 304.859 371.203C305.761 371.006 306.639 370.708 307.474 370.315C309.991 365.798 311.078 360.623 310.593 355.475C310.339 352.336 309.535 349.266 308.218 346.406C308.906 345.924 309.684 345.449 310.503 344.987C311.734 344.39 313.027 343.928 314.358 343.61C315.302 343.423 316.259 343.305 317.221 343.259C318.316 343.321 319.038 343.445 319.41 342.756C320.353 341 315.741 340.132 313.642 340.167Z" fill="#57275C"/>
<path d="M225.742 366.176C248.12 353.388 261.446 364.985 262.458 377.724C262.795 381.966 259.415 386.373 254.494 388.054C240.163 393.06 228.22 382.049 225.742 366.176Z" fill="white"/>
<path d="M259.298 365.97C251.486 356.625 237.719 353.299 229.177 358.491C225.247 359.18 223.767 358.126 222.376 357.355C221.199 356.666 220.401 357.775 220.793 358.574C221.588 360.263 223.011 361.574 224.758 362.23C223.649 363.175 222.384 363.918 221.02 364.427C217.888 365.508 217 364.207 216.305 365.612C215.335 367.588 219.864 369.702 225.942 367.147C228.392 380.562 237.643 390.244 249.345 389.183C253.131 384.225 255.044 376.788 254.06 368.524C253.977 367.836 253.874 367.188 253.757 366.527C254.397 366.83 255.031 367.147 255.629 367.457C257.178 368.263 258.094 369 259.112 368.146C259.42 367.878 259.611 367.501 259.645 367.095C259.68 366.689 259.556 366.286 259.298 365.97V365.97Z" fill="#57275C"/>
</svg>
