<svg width="1200" height="675" viewBox="0 0 1200 675" fill="none" xmlns="http://www.w3.org/2000/svg">
<path fill-rule="evenodd" clip-rule="evenodd" d="M441.604 273.009H470.753V401.628H441.604V347.062H392.647V401.628H363.497V273.009H392.647V322.192H441.604V273.009ZM582.681 398.287C577.947 399.648 571.843 400.916 564.369 402.092C556.895 403.267 549.047 403.855 540.825 403.855C532.479 403.855 525.534 402.741 519.99 400.514C514.447 398.287 510.056 395.163 506.817 391.141C503.578 387.12 501.274 382.326 499.903 376.758C498.533 371.19 497.848 365.065 497.848 358.383V304.004H525.689V355.043C525.689 363.951 526.873 370.385 529.24 374.345C531.607 378.304 536.029 380.284 542.507 380.284C544.5 380.284 546.617 380.191 548.86 380.006C551.102 379.82 553.095 379.603 554.839 379.356V304.004H582.681V398.287ZM671.812 352.073C671.812 334.256 665.21 325.347 652.005 325.347C649.14 325.347 646.306 325.718 643.503 326.461C640.7 327.203 638.427 328.131 636.683 329.245V379.542C638.053 379.789 639.797 380.006 641.915 380.191C644.032 380.377 646.337 380.47 648.828 380.47C656.427 380.47 662.158 377.871 666.019 372.674C669.881 367.478 671.812 360.611 671.812 352.073ZM700.214 352.816C700.214 360.611 699.062 367.663 696.757 373.974C694.453 380.284 691.12 385.666 686.76 390.121C682.4 394.575 677.044 398.008 670.691 400.421C664.337 402.834 657.112 404.04 649.015 404.04C645.652 404.04 642.133 403.886 638.458 403.576C634.783 403.267 631.17 402.865 627.62 402.37C624.07 401.875 620.675 401.287 617.436 400.607C614.198 399.926 611.332 399.215 608.841 398.472V273.566L636.683 268.926V306.231C639.797 304.87 643.036 303.818 646.399 303.076C649.763 302.333 653.375 301.962 657.237 301.962C664.213 301.962 670.379 303.168 675.736 305.581C681.092 307.994 685.577 311.427 689.189 315.882C692.802 320.336 695.543 325.687 697.411 331.936C699.28 338.184 700.214 345.144 700.214 352.816ZM749.918 381.769C755.026 381.769 758.638 381.274 760.756 380.284C762.874 379.294 763.932 377.376 763.932 374.53C763.932 372.303 762.562 370.354 759.822 368.684C757.081 367.014 752.908 365.127 747.302 363.023C742.942 361.415 738.987 359.745 735.437 358.012C731.886 356.28 728.866 354.208 726.374 351.795C723.883 349.382 721.952 346.505 720.582 343.165C719.211 339.824 718.526 335.803 718.526 331.101C718.526 321.945 721.952 314.706 728.803 309.386C735.655 304.065 745.06 301.405 757.019 301.405C762.998 301.405 768.728 301.931 774.21 302.983C779.691 304.034 784.051 305.179 787.29 306.416L782.431 327.946C779.192 326.832 775.673 325.842 771.874 324.976C768.074 324.11 763.808 323.677 759.074 323.677C750.354 323.677 745.994 326.09 745.994 330.915C745.994 332.029 746.181 333.019 746.555 333.885C746.928 334.751 747.676 335.586 748.797 336.39C749.918 337.194 751.444 338.061 753.375 338.989C755.306 339.917 757.766 340.937 760.756 342.051C766.86 344.278 771.905 346.474 775.891 348.64C779.878 350.805 783.023 353.156 785.328 355.692C787.632 358.229 789.252 361.044 790.186 364.137C791.12 367.23 791.587 370.818 791.587 374.902C791.587 384.553 787.944 391.853 780.656 396.802C773.369 401.751 763.06 404.226 749.731 404.226C741.011 404.226 733.755 403.484 727.962 401.999C722.17 400.514 718.152 399.277 715.91 398.287L720.582 375.83C725.315 377.686 730.174 379.139 735.156 380.191C740.139 381.243 745.06 381.769 749.918 381.769ZM811.394 273.566L839.236 268.926V305.859H872.683V328.874H839.236V361.353C839.236 367.168 840.264 371.808 842.319 375.273C844.374 378.737 848.516 380.47 854.745 380.47C857.735 380.47 860.818 380.191 863.994 379.634C867.171 379.078 870.067 378.304 872.683 377.314L876.607 398.844C873.244 400.205 869.507 401.38 865.396 402.37C861.285 403.36 856.24 403.855 850.26 403.855C842.661 403.855 836.371 402.834 831.388 400.792C826.405 398.751 822.419 395.905 819.429 392.255C816.439 388.605 814.353 384.182 813.169 378.985C811.986 373.788 811.394 368.035 811.394 361.724V273.566ZM932.851 382.326C935.592 382.326 938.208 382.264 940.699 382.14C943.191 382.016 945.184 381.831 946.679 381.583V360.611C945.558 360.363 943.876 360.116 941.634 359.868C939.391 359.621 937.336 359.497 935.467 359.497C932.851 359.497 930.391 359.652 928.086 359.961C925.782 360.27 923.758 360.858 922.014 361.724C920.27 362.59 918.899 363.766 917.903 365.251C916.906 366.735 916.408 368.591 916.408 370.818C916.408 375.149 917.872 378.15 920.799 379.82C923.726 381.49 927.744 382.326 932.851 382.326ZM930.609 301.405C938.831 301.405 945.682 302.333 951.163 304.189C956.644 306.045 961.036 308.705 964.337 312.17C967.638 315.634 969.974 319.841 971.344 324.79C972.714 329.74 973.399 335.246 973.399 341.309V398.844C969.413 399.71 963.87 400.731 956.769 401.906C949.668 403.081 941.073 403.669 930.983 403.669C924.63 403.669 918.868 403.112 913.698 401.999C908.529 400.885 904.075 399.06 900.338 396.524C896.601 393.987 893.736 390.677 891.743 386.594C889.75 382.511 888.753 377.5 888.753 371.561C888.753 365.869 889.905 361.044 892.21 357.084C894.514 353.125 897.598 349.97 901.459 347.619C905.321 345.268 909.743 343.567 914.726 342.515C919.709 341.463 924.879 340.937 930.235 340.937C933.848 340.937 937.056 341.092 939.858 341.401C942.661 341.711 944.935 342.113 946.679 342.608V340.009C946.679 335.308 945.246 331.534 942.381 328.688C939.516 325.842 934.533 324.419 927.432 324.419C922.699 324.419 918.027 324.759 913.418 325.44C908.809 326.121 904.823 327.079 901.459 328.317L897.909 306.045C899.528 305.55 901.553 305.024 903.982 304.468C906.411 303.911 909.058 303.416 911.923 302.983C914.788 302.55 917.809 302.178 920.986 301.869C924.162 301.56 927.37 301.405 930.609 301.405ZM1041.23 268.926C1046.46 268.926 1051.26 269.452 1055.62 270.503C1059.98 271.555 1063.34 272.576 1065.71 273.566L1060.29 295.652C1057.8 294.538 1055.09 293.703 1052.16 293.146C1049.23 292.589 1046.52 292.311 1044.03 292.311C1040.67 292.311 1037.83 292.775 1035.53 293.703C1033.22 294.631 1031.42 295.899 1030.11 297.508C1028.8 299.116 1027.87 301.034 1027.31 303.261C1026.75 305.488 1026.47 307.901 1026.47 310.499V315.325H1060.85V338.339H1026.47V401.628H998.625V310.128C998.625 297.508 1002.21 287.485 1009.37 280.061C1016.53 272.638 1027.15 268.926 1041.23 268.926ZM1119.52 268.926C1124.75 268.926 1129.55 269.452 1133.91 270.503C1138.27 271.555 1141.63 272.576 1144 273.566L1138.58 295.652C1136.09 294.538 1133.38 293.703 1130.45 293.146C1127.53 292.589 1124.82 292.311 1122.32 292.311C1118.96 292.311 1116.13 292.775 1113.82 293.703C1111.52 294.631 1109.71 295.899 1108.4 297.508C1107.1 299.116 1106.16 301.034 1105.6 303.261C1105.04 305.488 1104.76 307.901 1104.76 310.499V315.325H1139.14V338.339H1104.76V401.628H1076.92V310.128C1076.92 297.508 1080.5 287.485 1087.66 280.061C1094.83 272.638 1105.44 268.926 1119.52 268.926Z" fill="#253F53"/>
<path fill-rule="evenodd" clip-rule="evenodd" d="M86.3747 421.873L134.967 449.281C137.722 450.834 141.178 450.137 143.208 447.75C149.325 440.555 158.558 435.962 168.911 435.962C179.273 435.962 188.514 440.563 194.632 447.767C196.66 450.157 200.112 450.856 202.871 449.304L251.711 421.803C254.947 419.978 255.864 415.881 253.774 412.864C251.405 409.443 248.822 406.172 246.046 403.07C238.69 394.854 229.808 388.055 220.114 382.589L213.607 378.918L213.202 378.71C212.819 378.533 212.436 378.357 212.05 378.183C210.024 377.27 207.627 377.755 206.123 379.359C196.913 389.18 183.659 395.352 168.911 395.352C154.203 395.352 140.981 389.213 131.771 379.436C130.274 377.844 127.895 377.376 125.886 378.291L125.85 378.308L118.242 382.591C106.022 389.472 95.1202 398.483 86.7607 409.546C85.887 410.702 85.0404 411.878 84.2178 413.07C82.1742 416.037 83.1963 420.083 86.3747 421.873Z" fill="#294DFF"/>
<path fill-rule="evenodd" clip-rule="evenodd" d="M89.2343 253.554C86.5798 255.154 85.4356 258.538 86.5056 261.557C89.792 270.822 89.2711 281.499 84.1846 290.716C79.1044 299.928 70.5166 305.687 61.2468 307.272C58.2251 307.787 56 310.503 56 313.729C56 326.734 56.0018 357.428 56.0018 371.101C56.0018 374.863 59.001 377.904 62.5649 377.66C76.9131 376.69 90.4273 372.493 102.479 365.781L108.268 362.29C109.844 361.267 111.39 360.197 112.905 359.082C114.684 357.775 115.47 355.422 114.837 353.238C111.001 339.983 112.189 325.159 119.319 312.234C126.481 299.247 138.199 290.8 151.101 287.789C153.171 287.309 154.762 285.506 154.962 283.284C155.201 280.655 155.346 277.998 155.393 275.314L155.397 271.262C155.127 255.637 151.607 240.855 145.518 227.625C143.96 224.236 139.953 223.005 136.848 224.873L89.2343 253.554Z" fill="#1F95FF"/>
<path fill-rule="evenodd" clip-rule="evenodd" d="M253.921 290.718C248.837 281.499 248.316 270.824 251.6 261.557C252.669 258.541 251.525 255.152 248.871 253.554L201.259 224.873C198.155 223.004 194.146 224.235 192.588 227.626C186.498 240.858 182.98 255.641 182.708 271.268L182.711 275.31C182.76 277.993 182.905 280.652 183.144 283.284C183.345 285.508 184.935 287.309 187.005 287.791C199.907 290.799 211.624 299.248 218.789 312.234C225.916 325.161 227.105 339.983 223.272 353.237C222.638 355.424 223.421 357.776 225.203 359.083C226.718 360.197 228.263 361.267 229.837 362.291L235.626 365.78C247.679 372.496 261.193 376.69 275.543 377.66C279.105 377.903 282.105 374.865 282.105 371.101C282.106 357.428 282.106 326.734 282.106 313.727C282.106 310.502 279.883 307.787 276.859 307.273C267.588 305.687 259.005 299.928 253.921 290.718Z" fill="#5FBBFF"/>
</svg>
