<svg width="1200" height="675" viewBox="0 0 1200 675" fill="none" xmlns="http://www.w3.org/2000/svg">
<g clip-path="url(#clip0_1_13)">
<path d="M167.158 511.71C161.433 494.089 158 471.935 158 337.841C158 209.432 159.721 189.544 165.437 173.066C174.595 149.203 192.902 135 228.385 135C280.453 135 296.477 165.681 296.477 233.861V287.83H243.259V224.777C243.259 194.087 239.255 183.293 228.385 183.293C220.948 183.293 217.514 186.702 215.223 193.52C212.351 200.905 211.219 215.683 211.219 337.841C211.219 460.565 213.501 477.619 216.935 485.571C218.692 490.68 221.518 492.991 226.663 492.991C239.255 492.991 245.55 466.853 245.55 433.905V378.758H227.814V333.298H294.186V537.273H248.413L262.173 485.571H253.585C242.144 527.046 227.841 541.815 206.092 541.815C190.647 541.815 175.193 534.43 167.185 511.71" fill="#515108"/>
<path d="M398.952 537.275L375.491 367.966H365.762V537.275H314.264V139.544H372.628C403.527 139.544 426.418 151.48 440.151 174.777C449.879 191.867 451.591 207.158 451.591 248.642C451.591 286.141 449.879 303.752 440.151 320.798C431.563 335 417.26 342.385 401.815 345.794V352.612L423.555 359.646C423.889 359.753 424.186 359.951 424.413 360.216C424.64 360.481 424.788 360.804 424.842 361.148L452.135 537.275H398.952ZM365.762 187.846V308.295H372.628C381.787 308.295 389.224 304.886 393.798 296.934C398.373 288.983 399.523 279.889 399.523 248.642C399.523 218.527 398.382 207.158 394.369 199.773C389.224 191.255 382.357 187.846 372.628 187.846H365.762Z" fill="#515108"/>
<path d="M473.732 503.183C468.016 486.704 466.295 466.817 466.295 338.408C466.295 209.432 468.016 189.544 473.732 173.066C482.89 149.203 501.197 135 535.538 135C571.011 135 588.747 149.769 597.906 173.677C603.631 190.156 604.772 212.886 604.772 338.452C604.772 464.019 603.676 486.695 597.906 502.616C588.747 527.046 571.011 541.815 535.538 541.815C501.197 541.815 482.89 527.612 473.732 503.183V503.183ZM548.12 482.728C550.983 475.91 551.553 462.841 551.553 338.408C551.553 213.38 550.983 200.905 548.12 193.52C545.837 186.702 541.824 183.293 535.538 183.293C529.251 183.293 525.773 186.702 523.517 193.52C520.655 200.905 519.513 215.107 519.513 338.408C519.513 461.708 520.655 475.344 523.517 483.295C525.773 490.113 529.242 492.991 535.538 492.991C541.833 492.991 545.837 490.149 548.12 482.764" fill="#515108"/>
<path d="M627.148 503.183C621.423 486.704 619.711 466.817 619.711 338.408C619.711 209.432 621.423 189.544 627.148 173.066C636.288 149.203 654.613 135 688.945 135C724.427 135 742.163 149.769 751.331 173.677C757.046 190.156 758.188 212.886 758.188 338.452C758.188 464.019 757.037 486.695 751.331 502.616C742.172 527.046 724.436 541.815 688.954 541.815C654.622 541.815 636.315 527.612 627.157 503.183H627.148ZM701.509 482.728C704.371 475.91 704.942 462.841 704.942 338.408C704.942 213.38 704.371 200.905 701.509 193.52C699.217 186.702 695.213 183.293 688.917 183.293C682.622 183.293 679.189 186.702 676.906 193.52C674.043 200.905 672.893 215.107 672.893 338.408C672.893 461.708 674.043 475.344 676.906 483.295C679.189 490.113 682.622 492.955 688.917 492.955C695.213 492.955 699.217 490.113 701.509 482.728" fill="#515108"/>
<path d="M794.747 537.275L769.574 139.544H824.504L837.667 462.276L838.237 501.484H846.816L847.395 462.276L860.557 139.544H915.488L890.306 537.275H794.747Z" fill="#515108"/>
<path d="M931.957 537.275V139.544H1042.4V187.846H983.455V313.98H1038.39V362.272H983.455V488.982H1042.4V537.275H931.957Z" fill="#515108"/>
</g>
<defs>
<clipPath id="clip0_1_13">
<rect width="884.4" height="406.824" fill="white" transform="translate(158 135)"/>
</clipPath>
</defs>
</svg>
