<svg width="1200" height="675" viewBox="0 0 1200 675" fill="none" xmlns="http://www.w3.org/2000/svg">
<path fill-rule="evenodd" clip-rule="evenodd" d="M400.475 421.556V298.226H417.486V312.402C422.447 303.897 433.079 296.809 447.255 296.809C473.481 296.809 487.657 317.364 487.657 342.88C487.657 369.106 472.063 389.661 446.546 389.661C433.079 389.661 422.447 383.282 417.486 375.485V422.265H400.475V421.556ZM444.42 311.693C428.827 311.693 418.195 325.16 418.195 342.88C418.195 361.309 428.827 374.067 444.42 374.067C460.722 374.067 470.646 361.309 470.646 342.88C469.937 324.452 460.014 311.693 444.42 311.693ZM506.085 264.913C506.085 257.825 511.756 252.155 518.135 252.155C525.223 252.155 530.893 257.825 530.893 264.913H506.085ZM510.338 386.826V298.226H527.349V386.826H510.338ZM574.13 386.826H556.41V298.226H573.421V310.984C579.8 299.644 590.432 295.391 600.355 295.391C621.619 295.391 632.251 310.984 632.251 330.122V386.117H615.24V332.957C615.24 320.908 610.278 310.984 594.685 310.984C581.217 310.984 574.13 321.616 574.13 335.084V386.826ZM737.152 361.309C732.191 376.902 718.015 389.661 697.46 389.661C673.361 389.661 652.806 372.65 652.806 342.171C652.806 314.528 672.652 295.391 695.333 295.391C722.268 295.391 737.861 314.528 737.861 342.171C737.861 344.298 737.861 346.424 737.152 347.842H670.526C671.234 363.435 682.575 374.776 697.46 374.776C711.636 374.776 718.724 366.979 722.268 357.056L737.152 361.309ZM720.141 333.666C719.432 320.908 711.636 310.984 696.042 310.984C681.157 310.984 672.652 322.325 671.943 333.666H720.141ZM770.466 342.171C770.466 362.726 783.224 373.358 797.4 373.358C813.702 373.358 820.081 362.018 822.208 354.93L837.801 361.309C833.548 374.067 820.79 388.952 798.109 388.952C772.592 388.952 753.455 368.397 753.455 341.463C753.455 313.82 772.592 294.682 798.109 294.682C821.499 294.682 833.548 309.567 837.801 323.034L822.208 329.413C820.081 320.908 813.702 310.276 798.109 310.276C783.224 311.693 770.466 321.616 770.466 342.171ZM939.867 342.171C939.867 369.106 920.73 389.661 894.505 389.661C868.279 389.661 849.142 369.814 849.142 342.171C849.142 315.237 868.279 295.391 894.505 295.391C920.73 295.391 939.867 315.237 939.867 342.171ZM922.148 342.171C922.148 321.616 909.389 310.984 894.505 310.984C879.62 310.984 866.862 322.325 866.862 342.171C866.862 362.726 879.62 374.067 894.505 374.067C909.389 374.067 922.148 363.435 922.148 342.171ZM979.56 386.826H962.549V298.226H979.56V310.984C985.939 299.644 996.571 295.391 1006.49 295.391C1027.76 295.391 1038.39 310.984 1038.39 330.122V386.117H1021.38V332.957C1021.38 320.908 1016.42 310.984 1000.82 310.984C987.357 310.984 980.269 321.616 980.269 335.084V386.826H979.56ZM1143.29 361.309C1138.33 376.902 1124.15 389.661 1103.6 389.661C1079.5 389.661 1058.94 372.65 1058.94 342.171C1058.94 314.528 1078.79 295.391 1101.47 295.391C1128.41 295.391 1144 314.528 1144 342.171C1144 344.298 1144 346.424 1143.29 347.842H1076.66C1077.37 363.435 1088.71 374.776 1103.6 374.776C1117.77 374.776 1124.86 366.979 1128.41 357.056L1143.29 361.309ZM1125.57 333.666C1124.86 320.908 1117.07 310.984 1101.47 310.984C1086.59 310.984 1078.08 322.325 1077.37 333.666H1125.57Z" fill="#36B5BF"/>
<path d="M103.489 383.99C129.715 383.99 150.978 362.726 150.978 336.501H56C56 362.726 77.2638 383.99 103.489 383.99V383.99ZM198.468 383.99C224.693 383.99 245.957 362.726 245.957 336.501H150.978C150.978 362.726 172.242 383.99 198.468 383.99ZM245.957 336.501C245.957 362.726 267.221 383.99 293.446 383.99C319.672 383.99 340.935 362.726 340.935 336.501H245.957ZM150.978 310.984C177.204 310.984 198.468 289.72 198.468 263.495H103.489C103.489 289.72 124.753 310.984 150.978 310.984V310.984ZM245.957 310.984C272.182 310.984 293.446 289.72 293.446 263.495H198.468C198.468 289.72 219.732 310.984 245.957 310.984ZM197.759 143C170.116 170.643 170.116 216.006 197.759 244.358C226.111 216.006 226.111 170.643 197.759 143V143ZM150.978 457.705C177.204 457.705 198.468 436.441 198.468 410.216H103.489C103.489 436.441 124.753 457.705 150.978 457.705V457.705ZM245.957 457.705C272.182 457.705 293.446 436.441 293.446 410.216H198.468C198.468 436.441 219.732 457.705 245.957 457.705ZM198.468 531.419C224.693 531.419 245.957 510.156 245.957 483.93H150.978C150.978 510.156 172.242 531.419 198.468 531.419Z" fill="#36B5BF"/>
</svg>
